custom-analysis
version=1
nRows=4
nColumns=98
inDegrees=no

This file contains tibia displacement and acting force.

Units are S.I. units (seconds, meters, Newtons, ...)
Angles are in degrees.

endheader
time	APT	SIT	knee_angle	aACL_R_force	pACL_R_force	aPCL_R_force	pPCL_R_force	aMCL_R_force	mMCL_R_force	pMCL_R_force	aLCL_R_force	mLCL_R_force	pLCL_R_force	aPCL_L_force	pPCL_L_force	aMCL_L_force	aLCL_L_force	aACL_R_length	pACL_R_length	aPCL_R_length	pPCL_R_length	aMCL_R_length	mMCL_R_length	pMCL_R_length	aLCL_R_length	mLCL_R_length	pLCL_R_length	aPCL_L_length	pPCL_L_length	aMCL_L_length	aLCL_L_length	aACL_R_strain	pACL_R_strain	aPCL_R_strain	pPCL_R_strain	aMCL_R_strain	mMCL_R_strain	pMCL_R_strain	aLCL_R_strain	mLCL_R_strain	pLCL_R_strain	aPCL_L_strain	pPCL_L_strain	aMCL_L_strain	aLCL_L_strain	femur_lat_meniscii_r.femur_lat_r.force.X	femur_lat_meniscii_r.femur_lat_r.force.Y	femur_lat_meniscii_r.femur_lat_r.force.Z	femur_lat_meniscii_r.femur_lat_r.torque.X	femur_lat_meniscii_r.femur_lat_r.torque.Y	femur_lat_meniscii_r.femur_lat_r.torque.Z	femur_lat_meniscii_r.meniscus_lat_r.force.X	femur_lat_meniscii_r.meniscus_lat_r.force.Y	femur_lat_meniscii_r.meniscus_lat_r.force.Z	femur_lat_meniscii_r.meniscus_lat_r.torque.X	femur_lat_meniscii_r.meniscus_lat_r.torque.Y	femur_lat_meniscii_r.meniscus_lat_r.torque.Z	femur_med_meniscii_r.femur_med_r.force.X	femur_med_meniscii_r.femur_med_r.force.Y	femur_med_meniscii_r.femur_med_r.force.Z	femur_med_meniscii_r.femur_med_r.torque.X	femur_med_meniscii_r.femur_med_r.torque.Y	femur_med_meniscii_r.femur_med_r.torque.Z	femur_med_meniscii_r.meniscus_med_r.force.X	femur_med_meniscii_r.meniscus_med_r.force.Y	femur_med_meniscii_r.meniscus_med_r.force.Z	femur_med_meniscii_r.meniscus_med_r.torque.X	femur_med_meniscii_r.meniscus_med_r.torque.Y	femur_med_meniscii_r.meniscus_med_r.torque.Z	femur_med_tibia_r.tibia_upper_r.force.X	femur_med_tibia_r.tibia_upper_r.force.Y	femur_med_tibia_r.tibia_upper_r.force.Z	femur_med_tibia_r.tibia_upper_r.torque.X	femur_med_tibia_r.tibia_upper_r.torque.Y	femur_med_tibia_r.tibia_upper_r.torque.Z	femur_med_tibia_r.femur_med_r.force.X	femur_med_tibia_r.femur_med_r.force.Y	femur_med_tibia_r.femur_med_r.force.Z	femur_med_tibia_r.femur_med_r.torque.X	femur_med_tibia_r.femur_med_r.torque.Y	femur_med_tibia_r.femur_med_r.torque.Z	femur_lat_tibia_r.tibia_upper_r.force.X	femur_lat_tibia_r.tibia_upper_r.force.Y	femur_lat_tibia_r.tibia_upper_r.force.Z	femur_lat_tibia_r.tibia_upper_r.torque.X	femur_lat_tibia_r.tibia_upper_r.torque.Y	femur_lat_tibia_r.tibia_upper_r.torque.Z	femur_lat_tibia_r.femur_lat_r.force.X	femur_lat_tibia_r.femur_lat_r.force.Y	femur_lat_tibia_r.femur_lat_r.force.Z	femur_lat_tibia_r.femur_lat_r.torque.X	femur_lat_tibia_r.femur_lat_r.torque.Y	femur_lat_tibia_r.femur_lat_r.torque.Z	femur_lat_meniscii_force_r	femur_med_meniscii_force_r	femur_lat_tibia_force_r	femur_med_tibia_force_r
      0.10654299	      0.00816518	      0.00731655	     27.46963130	     10.25402573	    -11.01797697	      0.00000000	     54.36615224	      0.00000000	      0.00000000	    -37.64117640	      0.00000000	      0.00000000	      0.00000000	      0.00000000	      0.00000000	      0.00000001	      0.00000000	      0.03250315	      0.02547301	      0.03087027	      0.03006354	      0.05718745	      0.05953393	      0.05892559	      0.05345363	      0.05043279	      0.04692378	      0.01525851	      0.01651186	      0.06550154	      0.04489616	      0.04830282	      0.01653347	     -0.00723691	      0.00587989	     -0.04730451	     -0.00434115	      0.00336446	     -0.04508204	     -0.10450924	     -0.10352779	      0.00000079	     -0.32847694	      0.00000060	     -0.00000086	     58.82396361	    269.95553488	     41.52719953	    -23.60654949	      1.53055586	     23.27478194	    -58.82396361	   -269.95553488	    -41.52719953	      8.33397862	     -2.06664786	      1.84403582	    -31.38886266	     59.53898667	      5.45993464	     -0.81454038	      0.75198185	    -12.84881404	     31.38886266	    -59.53898667	     -5.45993464	     -1.13981966	     -0.73516827	      1.42995895	    -83.99362106	   -501.10625382	    113.91314289	    -11.88077220	      2.16370014	      0.78635408	     83.99362106	    501.10625382	   -113.91314289	     56.54544495	     -1.24062448	     36.20767907	    -41.59136020	   -157.60320414	    -39.85990351	      5.40387660	     -1.46839382	      0.16647906	     41.59136020	    157.60320414	     39.85990351	    -20.28977723	      0.98700815	     17.26940806	    279.39355363	     67.52749454	    167.80173749	    520.70971771
      0.10731382	      0.00821946	      0.00741917	     27.81637373	      9.79016384	    -11.36551820	      0.00000000	     55.59518468	      0.00000000	      0.00000000	    -37.57512782	      0.00000000	      0.00000000	      0.00000000	      0.00000000	      0.00000000	      0.00000001	      0.00000000	      0.03248885	      0.02544805	      0.03092885	      0.03010439	      0.05721593	      0.05952955	      0.05888574	      0.05344774	      0.05040557	      0.04687517	      0.01525851	      0.01651186	      0.06550154	      0.04489616	      0.04784151	      0.01553745	     -0.00535298	      0.00724692	     -0.04683005	     -0.00441434	      0.00268587	     -0.04518733	     -0.10499255	     -0.10445631	      0.00000079	     -0.32847694	      0.00000060	     -0.00000086	     55.72374739	    269.34824794	     42.06963629	    -23.81582888	      1.44752313	     21.94651262	    -55.72374739	   -269.34824794	    -42.06963629	      8.32537720	     -1.98493284	      2.01224880	    -30.95241535	     59.88676379	      6.24955619	     -1.13201593	      0.73623050	    -12.67593815	     30.95241535	    -59.88676379	     -6.24955619	     -1.12545805	     -0.72985582	      1.43417491	    -88.58354540	   -501.37361698	    112.88124193	    -11.85170600	      2.24217854	      0.68792971	     88.58354540	    501.37361698	   -112.88124193	     56.10560868	     -1.32342696	     38.12104618	    -39.60708928	   -149.28527196	    -37.94494378	      5.11777801	     -1.40476125	      0.18574855	     39.60708928	    149.28527196	     37.94494378	    -19.29528339	      0.94345200	     16.42770070	    278.25073044	     67.70179795	    159.04286436	    521.50237114
      0.10808465	      0.00827533	      0.00752304	     28.16498669	      9.22265556	    -11.78297982	      0.00000000	     56.90732827	      0.00000000	      0.00000000	    -37.81455522	      0.00000000	      0.00000000	      0.00000000	      0.00000000	      0.00000000	      0.00000001	      0.00000000	      0.03247407	      0.02542270	      0.03098715	      0.03014453	      0.05724462	      0.05952503	      0.05884573	      0.05344176	      0.05037802	      0.04682614	      0.01525851	      0.01651186	      0.06550154	      0.04489616	      0.04736477	      0.01452580	     -0.00347807	      0.00858977	     -0.04635221	     -0.00448996	      0.00200473	     -0.04529407	     -0.10548168	     -0.10539303	      0.00000079	     -0.32847694	      0.00000060	     -0.00000086	     54.59879995	    271.29854659	     42.36916894	    -24.00062973	      1.41497339	     21.44844740	    -54.59879995	   -271.29854659	    -42.36916894	      8.39089340	     -1.95602645	      2.13142932	    -30.70091330	     60.94224308	      7.13744296	     -1.48060891	      0.72806076	    -12.56940501	     30.70091330	    -60.94224308	     -7.13744296	     -1.11599753	     -0.73284900	      1.44127634	    -92.07266518	   -502.71527653	    113.04814371	    -11.88677503	      2.31823338	      0.65138819	     92.07266518	    502.71527653	   -113.04814371	     56.19103655	     -1.38920313	     39.56377136	    -37.74129707	   -141.90974806	    -35.95354654	      4.85065237	     -1.34338298	      0.20931349	     37.74129707	    141.90974806	     35.95354654	    -18.28786695	      0.90284959	     15.63485055	    279.96263468	     68.61083122	    151.18015613	    523.43090062
      0.10925308	      0.00836258	      0.00768290	     28.69687373	      8.33392055	    -12.37426267	      0.00000000	     59.94824306	      0.00000000	      0.00000000	    -38.12244937	      0.00000000	      0.00000000	      0.00000000	      0.00000000	      0.00000000	      0.00000001	      0.00000000	      0.03245071	      0.02538354	      0.03107499	      0.03020404	      0.05728827	      0.05951774	      0.05878466	      0.05343242	      0.05033552	      0.04675091	      0.01525851	      0.01651186	      0.06550154	      0.04489616	      0.04661142	      0.01296307	     -0.00065313	      0.01058075	     -0.04562499	     -0.00461185	      0.00096478	     -0.04546108	     -0.10623627	     -0.10683038	      0.00000079	     -0.32847694	      0.00000060	     -0.00000086	     50.81047034	    271.06563833	     42.64272649	    -24.10785173	      1.30613297	     19.81261009	    -50.81047034	   -271.06563833	    -42.64272649	      8.37967716	     -1.84700437	      2.36626254	    -29.17749519	     61.17745983	      8.14630219	     -1.89112002	      0.68982798	    -11.94267781	     29.17749519	    -61.17745983	     -8.14630219	     -1.09365207	     -0.71087591	      1.41022854	    -97.97779786	   -504.36659928	    112.92748829	    -11.91078933	      2.43743622	      0.57735316	     97.97779786	    504.36659928	   -112.92748829	     56.14868792	     -1.49712777	     42.00388313	    -35.80555388	   -131.98164263	    -33.43662575	      4.49621016	     -1.27518945	      0.21658076	     35.80555388	    131.98164263	     33.43662575	    -16.99931452	      0.85962531	     14.81266944	    279.06394661	     68.26690308	    140.78067915	    526.05886834
